<svg width="20" height="20" viewBox="0 0 20 20" fill="none" xmlns="http://www.w3.org/2000/svg">
<path fill-rule="evenodd" clip-rule="evenodd" d="M6.66527 6.66668V6.66671H5.46914C5.12302 6.66671 4.83447 6.93159 4.80491 7.27644L4.06205 15.9431C4.02869 16.3323 4.33563 16.6667 4.72629 16.6667H15.2738C15.6644 16.6667 15.9714 16.3323 15.938 15.9431L15.1952 7.27644C15.1656 6.93159 14.877 6.66671 14.5309 6.66671H13.3319V6.66668C13.3319 4.82573 11.8395 3.33334 9.9986 3.33334C8.15765 3.33334 6.66527 4.82573 6.66527 6.66668ZM9.99808 4.66674C8.89352 4.66674 7.9981 5.56216 7.99808 6.66671H11.9981C11.9981 5.56216 11.1026 4.66674 9.99808 4.66674ZM9.99687 11.9999C11.8193 11.9999 13.3001 10.5375 13.3298 8.72212C13.3313 8.70385 13.332 8.68536 13.332 8.66669C13.332 8.2985 13.0335 8.00003 12.6654 8.00003C12.2972 8.00003 11.9987 8.29849 11.9987 8.66668H11.9964C11.9963 9.77123 11.1009 10.6666 9.99635 10.6666C8.90982 10.6666 8.02565 9.80021 7.99707 8.72058C7.99849 8.70278 7.99922 8.68479 7.99922 8.66663C7.99922 8.29844 7.70074 7.99996 7.33255 7.99996C6.96436 7.99996 6.66588 8.29844 6.66588 8.66663V8.66668H6.66393V8.61503C6.66367 8.63218 6.66354 8.64936 6.66354 8.66658C6.66354 10.5075 8.15592 11.9999 9.99687 11.9999Z" fill="white"/>
</svg>
