<svg width="36" height="36" viewBox="0 0 36 36" fill="none" xmlns="http://www.w3.org/2000/svg">
<rect width="36" height="36" rx="6" fill="white"/>
<path fill-rule="evenodd" clip-rule="evenodd" d="M9.6665 10.5C9.6665 10.0398 10.0396 9.66666 10.4998 9.66666H12.9998C13.4601 9.66666 13.8332 10.0398 13.8332 10.5V13C13.8332 13.4602 13.4601 13.8333 12.9998 13.8333H10.4998C10.0396 13.8333 9.6665 13.4602 9.6665 13V10.5ZM9.6665 16.75C9.6665 16.2898 10.0396 15.9167 10.4998 15.9167H12.9998C13.4601 15.9167 13.8332 16.2898 13.8332 16.75V19.25C13.8332 19.7102 13.4601 20.0833 12.9998 20.0833H10.4998C10.0396 20.0833 9.6665 19.7102 9.6665 19.25V16.75ZM10.4998 22.1667C10.0396 22.1667 9.6665 22.5398 9.6665 23V25.5C9.6665 25.9602 10.0396 26.3333 10.4998 26.3333H12.9998C13.4601 26.3333 13.8332 25.9602 13.8332 25.5V23C13.8332 22.5398 13.4601 22.1667 12.9998 22.1667H10.4998ZM22.1665 10.5C22.1665 10.0398 22.5396 9.66666 22.9998 9.66666H25.4998C25.9601 9.66666 26.3332 10.0398 26.3332 10.5V13C26.3332 13.4602 25.9601 13.8333 25.4998 13.8333H22.9998C22.5396 13.8333 22.1665 13.4602 22.1665 13V10.5ZM22.9998 15.9167C22.5396 15.9167 22.1665 16.2898 22.1665 16.75V19.25C22.1665 19.7102 22.5396 20.0833 22.9998 20.0833H25.4998C25.9601 20.0833 26.3332 19.7102 26.3332 19.25V16.75C26.3332 16.2898 25.9601 15.9167 25.4998 15.9167H22.9998ZM22.1665 23C22.1665 22.5398 22.5396 22.1667 22.9998 22.1667H25.4998C25.9601 22.1667 26.3332 22.5398 26.3332 23V25.5C26.3332 25.9602 25.9601 26.3333 25.4998 26.3333H22.9998C22.5396 26.3333 22.1665 25.9602 22.1665 25.5V23ZM16.7498 9.66666C16.2896 9.66666 15.9165 10.0398 15.9165 10.5V13C15.9165 13.4602 16.2896 13.8333 16.7498 13.8333H19.2498C19.7101 13.8333 20.0832 13.4602 20.0832 13V10.5C20.0832 10.0398 19.7101 9.66666 19.2498 9.66666H16.7498ZM15.9165 16.75C15.9165 16.2898 16.2896 15.9167 16.7498 15.9167H19.2498C19.7101 15.9167 20.0832 16.2898 20.0832 16.75V19.25C20.0832 19.7102 19.7101 20.0833 19.2498 20.0833H16.7498C16.2896 20.0833 15.9165 19.7102 15.9165 19.25V16.75ZM16.7498 22.1667C16.2896 22.1667 15.9165 22.5398 15.9165 23V25.5C15.9165 25.9602 16.2896 26.3333 16.7498 26.3333H19.2498C19.7101 26.3333 20.0832 25.9602 20.0832 25.5V23C20.0832 22.5398 19.7101 22.1667 19.2498 22.1667H16.7498Z" fill="#586A84"/>
</svg>
