<svg width="36" height="36" viewBox="0 0 36 36" fill="none" xmlns="http://www.w3.org/2000/svg">
<rect width="36" height="36" rx="6" fill="#EEF0F4"/>
<path fill-rule="evenodd" clip-rule="evenodd" d="M10.4998 9.66666C10.0396 9.66666 9.6665 10.0398 9.6665 10.5V13C9.6665 13.4602 10.0396 13.8333 10.4998 13.8333H12.9998C13.4601 13.8333 13.8332 13.4602 13.8332 13V10.5C13.8332 10.0398 13.4601 9.66666 12.9998 9.66666H10.4998ZM10.4998 15.9167C10.0396 15.9167 9.6665 16.2898 9.6665 16.75V19.25C9.6665 19.7102 10.0396 20.0833 10.4998 20.0833H12.9998C13.4601 20.0833 13.8332 19.7102 13.8332 19.25V16.75C13.8332 16.2898 13.4601 15.9167 12.9998 15.9167H10.4998ZM9.6665 23C9.6665 22.5398 10.0396 22.1667 10.4998 22.1667H12.9998C13.4601 22.1667 13.8332 22.5398 13.8332 23V25.5C13.8332 25.9602 13.4601 26.3333 12.9998 26.3333H10.4998C10.0396 26.3333 9.6665 25.9602 9.6665 25.5V23ZM16.3332 9.66666C15.8729 9.66666 15.4998 10.0398 15.4998 10.5V13C15.4998 13.4602 15.8729 13.8333 16.3332 13.8333H25.4998C25.9601 13.8333 26.3332 13.4602 26.3332 13V10.5C26.3332 10.0398 25.9601 9.66666 25.4998 9.66666H16.3332ZM15.4998 16.75C15.4998 16.2898 15.8729 15.9167 16.3332 15.9167H25.4998C25.9601 15.9167 26.3332 16.2898 26.3332 16.75V19.25C26.3332 19.7102 25.9601 20.0833 25.4998 20.0833H16.3332C15.8729 20.0833 15.4998 19.7102 15.4998 19.25V16.75ZM16.3332 22.1667C15.8729 22.1667 15.4998 22.5398 15.4998 23V25.5C15.4998 25.9602 15.8729 26.3333 16.3332 26.3333H25.4998C25.9601 26.3333 26.3332 25.9602 26.3332 25.5V23C26.3332 22.5398 25.9601 22.1667 25.4998 22.1667H16.3332Z" fill="#3B4758"/>
</svg>
