<svg width="16" height="16" viewBox="0 0 16 16" fill="none" xmlns="http://www.w3.org/2000/svg">
<path fill-rule="evenodd" clip-rule="evenodd" d="M1.3335 3.33332C1.3335 2.96513 1.63197 2.66666 2.00016 2.66666H14.0002C14.3684 2.66666 14.6668 2.96513 14.6668 3.33332C14.6668 3.70151 14.3684 3.99999 14.0002 3.99999H2.00016C1.63197 3.99999 1.3335 3.70151 1.3335 3.33332ZM1.3335 7.99999C1.3335 7.6318 1.63197 7.33332 2.00016 7.33332H14.0002C14.3684 7.33332 14.6668 7.6318 14.6668 7.99999C14.6668 8.36818 14.3684 8.66666 14.0002 8.66666H2.00016C1.63197 8.66666 1.3335 8.36818 1.3335 7.99999ZM2.00016 12C1.63197 12 1.3335 12.2985 1.3335 12.6667C1.3335 13.0348 1.63197 13.3333 2.00016 13.3333H14.0002C14.3684 13.3333 14.6668 13.0348 14.6668 12.6667C14.6668 12.2985 14.3684 12 14.0002 12H2.00016Z" fill="white"/>
</svg>
