<svg width="20" height="20" viewBox="0 0 20 20" fill="none" xmlns="http://www.w3.org/2000/svg">
<path d="M5.25063 6.3829V18.3334H2.05867V6.3829H5.25063ZM1.85986 3.26825C1.85986 2.80437 2.02185 2.42148 2.34584 2.11959C2.66982 1.81769 3.10425 1.66675 3.64913 1.66675C4.18664 1.66675 4.61739 1.81769 4.94137 2.11959C5.27272 2.42148 5.43839 2.80437 5.43839 3.26825C5.43839 3.73213 5.27272 4.11502 4.94137 4.41691C4.61739 4.71881 4.18664 4.86975 3.64913 4.86975C3.10425 4.86975 2.66982 4.71881 2.34584 4.41691C2.02185 4.11502 1.85986 3.73213 1.85986 3.26825Z" fill="#EADFFF"/>
<path d="M10.9939 8.93425V18.3334H7.81303V6.3829H10.7951L10.9939 8.93425ZM10.5301 11.9385H9.66857C9.66857 11.0549 9.7827 10.2596 10.011 9.55276C10.2392 8.83853 10.5595 8.23107 10.9719 7.73037C11.3842 7.2223 11.8739 6.83573 12.4408 6.57066C13.0152 6.29822 13.6558 6.162 14.3626 6.162C14.9222 6.162 15.434 6.24299 15.8979 6.40498C16.3617 6.56698 16.7594 6.82469 17.0907 7.17812C17.4294 7.53156 17.6871 7.99912 17.8638 8.58082C18.0479 9.16251 18.14 9.87306 18.14 10.7125V18.3334H14.937V10.7014C14.937 10.1713 14.8633 9.75893 14.7161 9.46441C14.5688 9.16988 14.3516 8.96371 14.0644 8.84589C13.7846 8.72072 13.4385 8.65813 13.0262 8.65813C12.5991 8.65813 12.2273 8.74281 11.9107 8.91216C11.6014 9.08152 11.3437 9.31714 11.1375 9.61903C10.9387 9.91356 10.7878 10.2596 10.6847 10.6572C10.5816 11.0549 10.5301 11.4819 10.5301 11.9385Z" fill="#EADFFF"/>
</svg>
