<svg width="20" height="20" viewBox="0 0 20 20" fill="none" xmlns="http://www.w3.org/2000/svg">
<path fill-rule="evenodd" clip-rule="evenodd" d="M13.3332 3.33329H6.6665C4.82555 3.33329 3.33317 4.82568 3.33317 6.66663V13.3333C3.33317 15.1742 4.82555 16.6666 6.6665 16.6666H13.3332C15.1741 16.6666 16.6665 15.1742 16.6665 13.3333V6.66663C16.6665 4.82568 15.1741 3.33329 13.3332 3.33329ZM6.6665 1.66663C3.90508 1.66663 1.6665 3.9052 1.6665 6.66663V13.3333C1.6665 16.0947 3.90508 18.3333 6.6665 18.3333H13.3332C16.0946 18.3333 18.3332 16.0947 18.3332 13.3333V6.66663C18.3332 3.9052 16.0946 1.66663 13.3332 1.66663H6.6665ZM9.99984 12.5C11.3805 12.5 12.4998 11.3807 12.4998 9.99996C12.4998 8.61925 11.3805 7.49996 9.99984 7.49996C8.61913 7.49996 7.49984 8.61925 7.49984 9.99996C7.49984 11.3807 8.61913 12.5 9.99984 12.5ZM9.99984 14.1666C12.301 14.1666 14.1665 12.3011 14.1665 9.99996C14.1665 7.69877 12.301 5.83329 9.99984 5.83329C7.69865 5.83329 5.83317 7.69877 5.83317 9.99996C5.83317 12.3011 7.69865 14.1666 9.99984 14.1666ZM14.1662 7.00004C14.8105 7.00004 15.3328 6.47771 15.3328 5.83337C15.3328 5.18904 14.8105 4.66671 14.1662 4.66671C13.5218 4.66671 12.9995 5.18904 12.9995 5.83337C12.9995 6.47771 13.5218 7.00004 14.1662 7.00004Z" fill="#EADFFF"/>
</svg>
