<svg width="16" height="17" viewBox="0 0 16 17" fill="none" xmlns="http://www.w3.org/2000/svg">
<path d="M1.78469 2.43185C1.78242 2.45426 1.78125 2.477 1.78125 2.50001V14.5C1.78125 14.8452 2.04358 15.1291 2.37975 15.1632C2.40217 15.1655 2.4249 15.1667 2.44792 15.1667H8.44792C8.81611 15.1667 9.11458 14.8682 9.11458 14.5C9.11458 14.1318 8.81611 13.8333 8.44792 13.8333H3.11458V3.16668H8.44792C8.81611 3.16668 9.11458 2.8682 9.11458 2.50001C9.11458 2.13182 8.81611 1.83334 8.44792 1.83334H2.44792C2.10274 1.83334 1.81883 2.09568 1.78469 2.43185Z" fill="white"/>
<path d="M14.0234 9.00001C14.2839 8.73976 14.2839 8.3178 14.0234 8.05722L10.2526 4.28598C9.99219 4.0254 9.57031 4.02564 9.3099 4.28598C9.04948 4.54632 9.04818 4.96827 9.3099 5.22885L11.9427 7.86199H5.11458C4.74609 7.86199 4.44792 8.16049 4.44792 8.52866C4.44792 8.89682 4.74609 9.19532 5.11458 9.19532H11.9427L9.3099 11.8285C9.04948 12.0888 9.04818 12.5108 9.3099 12.7712C9.57031 13.0318 9.99219 13.0316 10.2526 12.7712L14.0234 9.00001Z" fill="white"/>
</svg>
