<svg width="19" height="19" viewBox="0 0 19 19" fill="none" xmlns="http://www.w3.org/2000/svg">
<path fill-rule="evenodd" clip-rule="evenodd" d="M12.9055 14.3197C9.76692 16.7622 5.22813 16.5418 2.34308 13.6568C-0.780897 10.5328 -0.781156 5.46731 2.34308 2.34308C5.46731 -0.781156 10.5328 -0.780897 13.6568 2.34308C16.5418 5.22813 16.7622 9.76692 14.3197 12.9055L17.8994 16.4852C18.0873 16.673 18.1854 16.9174 18.1917 17.1625C18.1995 17.4281 18.1023 17.6966 17.8994 17.8994C17.5089 18.2899 16.8761 18.2903 16.4852 17.8994L12.9055 14.3197ZM12.2426 3.75729C14.5862 6.10096 14.5857 9.89942 12.2426 12.2426C9.89942 14.5857 6.10096 14.5862 3.75729 12.2426C1.41362 9.8989 1.41414 6.10045 3.75729 3.75729C6.10045 1.41414 9.8989 1.41362 12.2426 3.75729Z" fill="#A97BFF"/>
</svg>
