<svg width="16" height="16" viewBox="0 0 16 16" fill="none" xmlns="http://www.w3.org/2000/svg">
<path d="M1.3335 3.33332C1.3335 2.96513 1.63197 2.66666 2.00016 2.66666H8.66683C9.03502 2.66666 9.3335 2.96513 9.3335 3.33332V12H7.3335C6.96531 12 6.67771 11.6933 6.55725 11.3454C6.28613 10.5623 5.54215 9.99999 4.66683 9.99999C3.79151 9.99999 3.04753 10.5623 2.77641 11.3454C2.65595 11.6933 2.36835 12 2.00016 12C1.63197 12 1.3335 11.7015 1.3335 11.3333V3.33332Z" fill="#5E6366"/>
<path d="M6.00016 12C6.00016 11.2636 5.4032 10.6667 4.66683 10.6667C3.93046 10.6667 3.3335 11.2636 3.3335 12C3.3335 12.7364 3.93046 13.3333 4.66683 13.3333C5.4032 13.3333 6.00016 12.7364 6.00016 12Z" fill="#5E6366"/>
<path fill-rule="evenodd" clip-rule="evenodd" d="M9.3335 3.33332L14.2983 5.81573C14.5242 5.92866 14.6668 6.1595 14.6668 6.41201V11.6667C14.6668 11.8508 14.5176 12 14.3335 12C14.1494 12 14.0031 11.8496 13.9727 11.6681C13.8146 10.7215 12.9917 9.99999 12.0002 9.99999C11.1248 9.99999 10.3809 10.5623 10.1097 11.3454C9.98928 11.6933 9.70168 12 9.3335 12V3.33332ZM10.0002 5.74535C10.0002 5.24976 10.5217 4.92743 10.965 5.14906L13.6316 6.48239C13.8575 6.59532 14.0002 6.82616 14.0002 7.07868V7.33332C14.0002 7.70151 13.7017 7.99999 13.3335 7.99999H10.6668C10.2986 7.99999 10.0002 7.70151 10.0002 7.33332V5.74535Z" fill="#5E6366"/>
<path d="M13.3335 12C13.3335 11.2636 12.7365 10.6667 12.0002 10.6667C11.2638 10.6667 10.6668 11.2636 10.6668 12C10.6668 12.7364 11.2638 13.3333 12.0002 13.3333C12.7365 13.3333 13.3335 12.7364 13.3335 12Z" fill="#5E6366"/>
</svg>
