<svg width="36" height="36" viewBox="0 0 36 36" fill="none" xmlns="http://www.w3.org/2000/svg">
<rect width="36" height="36" rx="18" fill="#C3A7F9"/>
<path fill-rule="evenodd" clip-rule="evenodd" d="M14.6653 14.6667V14.6667H13.4691C13.123 14.6667 12.8345 14.9316 12.8049 15.2764L12.0621 23.9431C12.0287 24.3323 12.3356 24.6667 12.7263 24.6667H23.2738C23.6644 24.6667 23.9714 24.3323 23.938 23.9431L23.1952 15.2764C23.1656 14.9316 22.877 14.6667 22.5309 14.6667H21.3319V14.6667C21.3319 12.8257 19.8395 11.3333 17.9986 11.3333C16.1576 11.3333 14.6653 12.8257 14.6653 14.6667ZM17.9981 12.6667C16.8935 12.6667 15.9981 13.5622 15.9981 14.6667H19.9981C19.9981 13.5622 19.1026 12.6667 17.9981 12.6667ZM17.9969 19.9999C19.8193 19.9999 21.3001 18.5375 21.3298 16.7221C21.3313 16.7038 21.332 16.6854 21.332 16.6667C21.332 16.2985 21.0335 16 20.6654 16C20.2972 16 19.9987 16.2985 19.9987 16.6667H19.9964C19.9963 17.7712 19.1009 18.6666 17.9964 18.6666C16.9098 18.6666 16.0256 17.8002 15.9971 16.7206C15.9985 16.7028 15.9992 16.6848 15.9992 16.6666C15.9992 16.2984 15.7007 16 15.3326 16C14.9644 16 14.6659 16.2984 14.6659 16.6666V16.6667H14.6639V16.615C14.6637 16.6322 14.6635 16.6494 14.6635 16.6666C14.6635 18.5075 16.1559 19.9999 17.9969 19.9999Z" fill="white"/>
</svg>
