<svg width="16" height="16" viewBox="0 0 16 16" fill="none" xmlns="http://www.w3.org/2000/svg">
<path d="M12.853 1.33347C13.1399 1.33347 13.3947 1.51706 13.4854 1.78928L14.6326 5.23084C14.6552 5.2988 14.6682 5.37017 14.6625 5.44162C14.6074 6.12741 14.0334 6.6668 13.3335 6.6668C12.5971 6.6668 12.0001 6.06987 12.0001 5.33347C12.0001 6.06987 11.4032 6.6668 10.6668 6.6668C9.93044 6.6668 9.33347 6.06987 9.33347 5.33347C9.33347 6.06987 8.73651 6.6668 8.00014 6.6668C7.26377 6.6668 6.66681 6.06987 6.66681 5.33347C6.66681 6.06987 6.06984 6.6668 5.33347 6.6668C4.5971 6.6668 4.00014 6.06987 4.00014 5.33347C4.00014 6.06987 3.40318 6.6668 2.66681 6.6668C1.96686 6.6668 1.39284 6.12741 1.33779 5.44162C1.3338 5.39206 1.3388 5.34258 1.34983 5.29424C1.35471 5.27284 1.36074 5.25168 1.36769 5.23084L2.51487 1.78928C2.60561 1.51706 2.86037 1.33347 3.14732 1.33347H12.853Z" fill="#5E6366"/>
<path d="M4.00051 9.3333C4.00051 9.70149 4.29898 9.99997 4.66717 9.99997H11.3338C11.702 9.99997 12.0005 9.70149 12.0005 9.3333V7.64336C12.3927 7.87017 12.8479 7.99989 13.3335 7.99989C13.5638 7.99989 13.7873 7.97075 14.0005 7.9159V13.9999C14.0005 14.3681 13.702 14.6666 13.3338 14.6666H2.66717C2.29898 14.6666 2.00051 14.3681 2.00051 13.9999V7.91607C2.21344 7.97084 2.4367 7.99989 2.66681 7.99989C3.15252 7.99989 3.60825 7.87025 4.00051 7.64336V9.3333Z" fill="#5E6366"/>
</svg>
