<svg width="20" height="20" viewBox="0 0 20 20" fill="none" xmlns="http://www.w3.org/2000/svg">
<path d="M16.6269 6.6142C16.637 6.76051 16.6371 6.90683 16.6371 7.0545C16.6371 11.5539 13.1974 16.7431 6.90789 16.7431V16.7404C5.04994 16.7431 3.23059 16.2131 1.6665 15.2138C1.93666 15.2462 2.20818 15.2624 2.48037 15.263C4.02008 15.2644 5.51578 14.7499 6.7271 13.8026C5.2639 13.7749 3.98081 12.8249 3.53257 11.4379C4.04513 11.5364 4.57327 11.5161 5.07635 11.3793C3.48112 11.0583 2.33344 9.66257 2.33344 8.04163V7.99847C2.80876 8.26211 3.34096 8.40843 3.88534 8.42461C2.38287 7.42467 1.91974 5.43423 2.82704 3.87801C4.56311 6.00533 7.12456 7.29858 9.87424 7.43546C9.59866 6.25279 9.97512 5.01348 10.8635 4.18211C12.2407 2.89291 14.4067 2.95899 15.7013 4.32977C16.4671 4.17941 17.2011 3.89959 17.8727 3.50312C17.6175 4.29134 17.0833 4.96089 16.3696 5.38635C17.0474 5.30679 17.7096 5.12609 18.3332 4.85031C17.8741 5.53537 17.2959 6.1321 16.6269 6.6142Z" fill="#EADFFF"/>
</svg>
